HIERARCHY
ROOT joint_Root
{
	OFFSET 0.0 0.0 0.0
	CHANNELS 6 Xposition Yposition Zposition Zrotation Xrotation Yrotation 
	JOINT Hips
	{
		OFFSET 4.5925 91.4895 -427.239
		CHANNELS 6 Xposition Yposition Zposition Zrotation Xrotation Yrotation 
		JOINT Spine
		{
			OFFSET 15.7357 0.0 0.0
			CHANNELS 6 Xposition Yposition Zposition Zrotation Xrotation Yrotation 
			JOINT Chest
			{
				OFFSET 8.98455 -0.406207 0.0
				CHANNELS 6 Xposition Yposition Zposition Zrotation Xrotation Yrotation 
				JOINT Neck
				{
					OFFSET 16.3773 0.0 0.0
					CHANNELS 6 Xposition Yposition Zposition Zrotation Xrotation Yrotation 
					JOINT Head
					{
						OFFSET 6.45672 0.0 0.0
						CHANNELS 6 Xposition Yposition Zposition Zrotation Xrotation Yrotation 
						End Site
						{
							OFFSET 0.0 0.0 0.0
						}
					}
				}
				JOINT Shoulder_L
				{
					OFFSET 12.9942 -0.242716 4.98039
					CHANNELS 6 Xposition Yposition Zposition Zrotation Xrotation Yrotation 
					JOINT UpperArm_L
					{
						OFFSET 5.34809 0.0 0.0
						CHANNELS 6 Xposition Yposition Zposition Zrotation Xrotation Yrotation 
						JOINT LowerArm_L
						{
							OFFSET 24.3286 1.87007e-05 0.0
							CHANNELS 6 Xposition Yposition Zposition Zrotation Xrotation Yrotation 
							JOINT Hand_L
							{
								OFFSET 22.2916 0.0 0.0
								CHANNELS 6 Xposition Yposition Zposition Zrotation Xrotation Yrotation 
								End Site
								{
									OFFSET 0.0 0.0 0.0
								}
							}
						}
					}
				}
				JOINT Shoulder_R
				{
					OFFSET 12.9945 -0.242716 -4.98039
					CHANNELS 6 Xposition Yposition Zposition Zrotation Xrotation Yrotation 
					JOINT UpperArm_R
					{
						OFFSET -5.34813 0.0 0.0
						CHANNELS 6 Xposition Yposition Zposition Zrotation Xrotation Yrotation 
						JOINT LowerArm_R
						{
							OFFSET -24.3289 0.000322201 0.0
							CHANNELS 6 Xposition Yposition Zposition Zrotation Xrotation Yrotation 
							JOINT Hand_R
							{
								OFFSET -22.2915 -0.000108084 0.0
								CHANNELS 6 Xposition Yposition Zposition Zrotation Xrotation Yrotation 
								End Site
								{
									OFFSET 0.0 0.0 0.0
								}
							}
						}
					}
				}
			}
		}
		JOINT UpperLeg_L
		{
			OFFSET -2.19248 -6.46944 0.0
			CHANNELS 6 Xposition Yposition Zposition Zrotation Xrotation Yrotation 
			JOINT LowerLeg_L
			{
				OFFSET 39.0811 0.0 -1.23785e-05
				CHANNELS 6 Xposition Yposition Zposition Zrotation Xrotation Yrotation 
				JOINT Foot_L
				{
					OFFSET 40.9854 0.0 -1.26872e-05
					CHANNELS 6 Xposition Yposition Zposition Zrotation Xrotation Yrotation 
					JOINT Toes_L
					{
						OFFSET 11.7543 0.0 0.0
						CHANNELS 6 Xposition Yposition Zposition Zrotation Xrotation Yrotation 
						End Site
						{
							OFFSET 0.0 0.0 0.0
						}
					}
				}
			}
		}
		JOINT UpperLeg_R
		{
			OFFSET -2.19251 6.46944 0.0
			CHANNELS 6 Xposition Yposition Zposition Zrotation Xrotation Yrotation 
			JOINT LowerLeg_R
			{
				OFFSET -39.0811 -0.00228153 -0.0401928
				CHANNELS 6 Xposition Yposition Zposition Zrotation Xrotation Yrotation 
				JOINT Foot_R
				{
					OFFSET -40.9854 0.0 0.0
					CHANNELS 6 Xposition Yposition Zposition Zrotation Xrotation Yrotation 
					JOINT Toes_R
					{
						OFFSET -11.7543 0.0 0.0
						CHANNELS 6 Xposition Yposition Zposition Zrotation Xrotation Yrotation 
						End Site
						{
							OFFSET 0.0 0.0 0.0
						}
					}
				}
			}
		}
	}
}
MOTION
Frames:	6
Frame Time:	0.0333333
0.000000 0.000000 0.000000 0.000000 0.000000 -0.000000 -1.702470 91.184200 1.137370 89.567900 -1.217490 7.747450 15.735700 0.000005 -0.000001 84.034100 87.843100 -84.531000 8.984550 -0.406207 -0.000000 -3.477120 -0.399390 -1.006340 16.377300 -0.000001 -0.000001 3.552490 -4.267140 2.776160 6.456720 -0.000001 -0.000000 -4.771360 -5.858130 3.318350 12.994200 -0.242716 4.980390 -84.230300 -10.928100 -61.942600 5.348090 -0.000007 -0.000001 -45.162800 -60.526000 -52.784600 24.328600 0.000019 0.000005 0.880224 1.361010 -32.895500 22.291600 -0.000001 0.000005 16.797300 4.320710 19.470600 12.994500 -0.242716 -4.980390 93.283300 -8.766340 -69.372400 -5.348130 -0.000001 -0.000004 -66.805400 -62.428400 -73.009800 -24.328900 0.000322 -0.000009 -21.103900 -29.191300 -38.359000 -22.291500 -0.000108 -0.000004 34.326400 4.617660 14.615200 -2.192480 -6.469440 -0.000000 -174.899000 -9.155420 -0.490240 39.081100 -0.000007 -0.000012 -0.162843 0.307048 27.939500 40.985400 -0.000006 -0.000013 -0.290459 6.418950 -69.654500 11.754300 -0.000000 0.000003 -0.000028 -0.000343 -16.590900 -2.192510 6.469440 -0.000001 176.023000 18.502500 -179.229000 -39.081100 -0.002282 -0.040193 -0.042010 0.086434 27.667500 -40.985400 0.000008 0.000006 5.738910 12.098400 -71.263500 -11.754300 -0.000006 -0.000006 -0.004057 -0.052036 -18.689800
0.000000 0.000000 0.000000 0.000000 0.000000 -0.000000 -1.739290 91.146800 1.388000 89.547600 -1.256290 7.997650 15.735700 0.000005 -0.000001 83.017000 87.760300 -83.509600 8.984550 -0.406207 -0.000000 -3.321890 -0.496681 -0.999652 16.377300 -0.000001 -0.000001 4.520710 -4.413480 2.871450 6.456720 -0.000001 -0.000000 -4.349470 -6.061070 3.377650 12.994200 -0.242716 4.980390 -84.118300 -10.947100 -61.521200 5.348090 -0.000007 -0.000001 -50.115000 -62.123600 -58.252600 24.328600 0.000019 0.000005 1.489160 2.197450 -34.124600 22.291600 -0.000001 0.000005 18.735200 4.372660 18.667800 12.994500 -0.242716 -4.980390 93.329500 -8.618380 -68.782500 -5.348130 -0.000001 -0.000004 -73.290100 -61.899700 -79.685900 -24.328900 0.000322 -0.000009 -20.254700 -26.416500 -39.671700 -22.291500 -0.000108 -0.000004 37.603500 4.709920 12.984700 -2.192480 -6.469440 -0.000000 -174.787000 -9.121480 -0.062433 39.081100 -0.000007 -0.000012 -0.164284 0.309060 27.993500 40.985400 -0.000006 -0.000013 -0.331405 6.382550 -69.874100 11.754300 -0.000000 0.000003 -0.000028 -0.000344 -16.591000 -2.192510 6.469440 -0.000001 175.787000 18.760800 -178.722000 -39.081100 -0.002282 -0.040193 -0.059244 0.119417 27.645500 -40.985400 0.000008 0.000006 5.540270 12.503600 -71.409000 -11.754300 -0.000006 -0.000006 -0.004093 -0.052402 -18.704700
0.000000 0.000000 0.000000 0.000000 0.000000 -0.000000 -1.784820 91.134100 1.705670 89.583500 -1.025610 8.102680 15.735700 0.000005 -0.000001 82.458600 87.850100 -83.027800 8.984550 -0.406207 -0.000000 -3.505780 -0.508054 -1.154190 16.377300 -0.000001 -0.000001 5.662390 -4.500780 3.087560 6.456720 -0.000001 -0.000000 -3.627940 -5.962530 3.322230 12.994200 -0.242716 4.980390 -83.612700 -11.942200 -61.586900 5.348090 -0.000007 -0.000001 -50.566600 -63.124100 -63.520600 24.328600 0.000019 0.000005 2.118690 2.680880 -38.324100 22.291600 -0.000001 0.000005 22.011700 4.586840 15.165200 12.994500 -0.242716 -4.980390 93.760900 -9.447450 -68.175500 -5.348130 -0.000001 -0.000004 -74.859400 -61.215300 -85.461700 -24.328900 0.000322 -0.000009 -22.064100 -25.322200 -43.461500 -22.291500 -0.000108 -0.000004 35.753900 4.823260 10.846600 -2.192480 -6.469440 -0.000000 -174.842000 -8.628370 0.318789 39.081100 -0.000007 -0.000012 -0.167769 0.317715 27.836500 40.985400 -0.000006 -0.000013 -0.432061 6.159200 -70.017600 11.754300 -0.000000 0.000003 -0.000029 -0.000350 -16.591200 -2.192510 6.469440 -0.000001 175.795000 18.703100 -178.341000 -39.081100 -0.002282 -0.040193 -0.024591 0.053321 27.618500 -40.985400 0.000008 0.000006 6.228830 12.054600 -71.814000 -11.754300 -0.000006 -0.000006 -0.003995 -0.051390 -18.663500
0.000000 0.000000 0.000000 0.000000 0.000000 -0.000000 -1.799460 91.117800 1.961660 89.599100 -0.758926 8.011230 15.735700 0.000005 -0.000001 80.257300 88.130400 -80.835900 8.984550 -0.406207 -0.000000 -4.083590 -0.572489 -1.178350 16.377300 -0.000001 -0.000001 6.657340 -4.428940 3.162510 6.456720 -0.000001 -0.000000 -3.092070 -5.723530 2.988210 12.994200 -0.242716 4.980390 -82.908800 -13.006300 -61.068800 5.348090 -0.000007 -0.000001 -49.935700 -63.517000 -69.711200 24.328600 0.000019 0.000005 3.865210 3.685490 -46.389100 22.291600 -0.000001 0.000005 24.844500 4.820790 10.951900 12.994500 -0.242716 -4.980390 94.438000 -10.841600 -67.578200 -5.348130 -0.000001 -0.000004 -71.805300 -60.859000 -88.657400 -24.328900 0.000322 -0.000009 -21.159600 -19.325100 -49.487800 -22.291500 -0.000108 -0.000004 32.924700 5.065040 5.864490 -2.192480 -6.469440 -0.000000 -174.856000 -8.472030 0.400353 39.081100 -0.000007 -0.000012 -0.167908 0.318754 27.778800 40.985400 -0.000006 -0.000013 -0.422815 6.263270 -70.148900 11.754300 -0.000000 0.000003 -0.000030 -0.000360 -16.591600 -2.192510 6.469440 -0.000001 175.928000 18.577100 -178.301000 -39.081100 -0.002282 -0.040193 0.011894 -0.016342 27.721700 -40.985400 0.000008 0.000006 6.932300 11.439400 -72.135200 -11.754300 -0.000006 -0.000006 -0.003803 -0.049372 -18.581300
0.000000 0.000000 0.000000 0.000000 0.000000 -0.000000 -1.778100 91.117000 2.133660 89.610700 -0.499779 7.862510 15.735700 0.000005 -0.000001 78.916400 88.312300 -79.522800 8.984550 -0.406207 -0.000000 -4.456450 -0.583721 -1.236150 16.377300 -0.000001 -0.000001 6.863630 -4.480630 3.114130 6.456720 -0.000001 -0.000000 -2.838540 -5.665680 2.750390 12.994200 -0.242716 4.980390 -82.309800 -13.595200 -60.125100 5.348090 -0.000007 -0.000001 -49.579100 -63.828800 -77.009200 24.328600 0.000019 0.000005 6.956510 4.531130 -57.046000 22.291600 -0.000001 0.000005 29.226800 5.024270 6.865670 12.994500 -0.242716 -4.980390 95.038900 -11.814000 -66.700200 -5.348130 -0.000001 -0.000004 -67.095000 -61.229900 -91.244200 -24.328900 0.000322 -0.000009 -15.487600 -10.231500 -57.383600 -22.291500 -0.000108 -0.000004 33.361800 5.341350 -1.085470 -2.192480 -6.469440 -0.000000 -174.862000 -8.486810 0.383620 39.081100 -0.000007 -0.000012 -0.167968 0.320027 27.693200 40.985400 -0.000006 -0.000013 -0.353188 6.519720 -70.208100 11.754300 -0.000000 0.000003 -0.000037 -0.000432 -16.594400 -2.192510 6.469440 -0.000001 175.932000 18.653900 -178.357000 -39.081100 -0.002282 -0.040193 0.013366 -0.019103 27.770900 -40.985400 0.000008 0.000006 6.956990 11.244200 -72.125800 -11.754300 -0.000006 -0.000006 -0.003614 -0.047364 -18.499600
0.000000 0.000000 0.000000 0.000000 0.000000 -0.000000 -1.746650 91.160300 2.241500 89.643600 -0.247520 7.439580 15.735700 0.000005 -0.000001 78.839500 88.478100 -79.448700 8.984550 -0.406207 -0.000000 -4.782460 -0.521899 -1.241280 16.377300 -0.000001 -0.000001 6.397390 -4.513980 2.806210 6.456720 -0.000001 -0.000000 -2.710310 -5.878190 2.517830 12.994200 -0.242716 4.980390 -81.727400 -14.031400 -59.049600 5.348090 -0.000007 -0.000001 -46.773500 -63.838500 -80.358000 24.328600 0.000019 0.000005 11.734200 5.276890 -66.083700 22.291600 -0.000001 0.000005 37.391600 5.347510 -1.034370 12.994500 -0.242716 -4.980390 95.621700 -12.499400 -65.544100 -5.348130 -0.000001 -0.000004 -58.673500 -62.901100 -89.765400 -24.328900 0.000322 -0.000009 -10.091200 -4.669540 -65.427800 -22.291500 -0.000108 -0.000004 37.225400 5.656220 -14.548400 -2.192480 -6.469440 -0.000000 -174.952000 -8.530770 0.145952 39.081100 -0.000007 -0.000012 -0.165793 0.319990 27.389800 40.985400 -0.000006 -0.000013 -0.289487 6.751890 -70.105800 11.754300 -0.000000 0.000003 -0.000032 -0.000380 -16.592400 -2.192510 6.469440 -0.000001 175.966000 18.875600 -178.566000 -39.081100 -0.002282 -0.040193 0.013487 -0.019552 27.505300 -40.985400 0.000008 0.000006 6.936960 11.227400 -72.037200 -11.754300 -0.000006 -0.000006 -0.003746 -0.048775 -18.557000
